<svg width="400" height="400" viewBox="0 0 400 400" xmlns="http://www.w3.org/2000/svg">

  <!-- Background -->
  <rect width="100%" height="100%" fill="#2f3746"/>

  <!-- Main A shape -->
  <path
    d="
      M200 60
      L90 300
      Q80 320 100 320
      L150 320
      Q170 320 180 300
      L200 250
      L220 300
      Q230 320 250 320
      L300 320
      Q320 320 310 300
      Z
    "
    fill="#ff4d4d"
  />

  <!-- Curved side arms -->
  <path
    d="
      M90 300
      Q40 260 70 220
      Q100 190 130 240
    "
    fill="#ff4d4d"
  />

  <path
    d="
      M310 300
      Q360 260 330 220
      Q300 190 270 240
    "
    fill="#ff4d4d"
  />

  <!-- Inner cut triangle -->
  <path
    d="
      M200 140
      L140 260
      Q200 230 260 260
      Z
    "
    fill="#2f3746"
  />

  <!-- Center star -->
  <polygon
    points="
      200,185
      210,210
      235,210
      215,225
      225,250
      200,235
      175,250
      185,225
      165,210
      190,210
    "
    fill="#e6e6e6"
  />

</svg>
